<?xml version="1.0" standalone="no"?>
<!DOCTYPE svg PUBLIC "-//W3C//DTD SVG 1.1//EN" "http://www.w3.org/Graphics/SVG/1.1/DTD/svg11.dtd" >
<svg xmlns="http://www.w3.org/2000/svg">
<metadata>Generated by IcoMoon</metadata>
<defs>
<font id="icomoon" horiz-adv-x="1024">
<font-face units-per-em="1024" ascent="960" descent="-64" />
<missing-glyph horiz-adv-x="1024" />
<glyph unicode="&#x20;" horiz-adv-x="512" d="" />
<glyph unicode="&#x61;" glyph-name="adwords" d="M981.333 241.493v3.84l-328.107 564.907c-28.141 51.258-81.755 85.423-143.348 85.423-72.367 0-133.719-47.164-154.994-112.431l-0.325-1.153-311.893-538.88c-13.227-23.010-21.029-50.594-21.029-80 0-89.847 72.836-162.683 162.683-162.683 60.441 0 113.184 32.961 141.234 81.889l0.42 0.794 186.027 322.133 185.6-321.707c25.237-59.663 83.282-100.765 150.927-100.765 90.251 0 163.413 73.163 163.413 163.413 0 35.739-11.473 68.798-30.936 95.695l0.329-0.477zM184.747 42.24c-0.126 0-0.276-0.001-0.426-0.001-66.687 0-120.747 54.060-120.747 120.747s54.060 120.747 120.747 120.747c66.687 0 120.747-54.060 120.747-120.747 0-0.15 0-0.299-0.001-0.449v0.023c-0.242-66.354-53.966-120.078-120.297-120.32h-0.023zM343.467 198.4c-16.589 73.591-81.295 127.771-158.695 128h-0.025c-18.436-0.387-35.986-3.637-52.399-9.321l1.199 0.361 217.6 376.747c3.262-13.606 7.801-25.55 13.64-36.707l-0.413 0.867 5.973-10.24 116.48-200.107z" />
<glyph unicode="&#x63;" glyph-name="css3" d="M408.32 4.267l445.013 148.053 149.333 739.413h-836.267l-31.573-164.693h669.867l-20.907-105.387h-671.147l-32.853-165.12h670.293l-36.693-189.013-270.507-88.32-233.813 88.32 16.213 82.347h-165.12l-38.827-197.547 386.987-148.053z" />
<glyph unicode="&#x64;" glyph-name="dreamweaver" d="M8.96 938.667v-981.333h1006.080v981.333zM51.627 896h921.6v-896h-922.453zM139.947 707.84c0 3.413 0 4.693 4.693 5.547 15.787 0 61.44 0 108.8 0 140.373 0 210.347-90.453 210.347-223.147 0-184.747-121.173-241.067-213.333-241.067-35.413 0-85.333 0-105.387 0-2.56 0-3.84 2.133-3.84 5.547zM215.467 320c11.52 0 21.76 0 34.987 0 77.653 0 135.253 54.613 135.68 170.667s-58.88 158.293-132.693 158.293c-14.507 0-26.453 0-37.973 0zM747.52 254.293c-5.12 0-6.4 0-7.253 5.973-20.48 115.627-37.973 197.12-45.653 253.867v0c-8.96-51.2-25.6-136.107-53.333-256 0-3.84-2.987-5.12-6.4-5.12h-68.267c-4.693 0-5.973 0-7.253 4.693l-74.24 330.667c-0.134 0.397-0.212 0.853-0.212 1.328 0 2.356 1.91 4.267 4.267 4.267 0.225 0 0.447-0.017 0.663-0.051l-0.024 0.003h67.84c2.987 0 5.12 0 5.547-3.84 26.453-148.907 37.547-225.707 42.667-256h2.56c4.693 35.84 19.2 110.933 50.347 256 0 3.84 0 5.12 5.547 5.12h71.253c3.84 0 4.267 0 5.12-5.12 24.32-136.533 40.107-222.72 42.667-256v0c7.253 42.667 16.213 104.107 46.080 256 0 2.987 0 4.693 4.693 4.693h66.133c2.987 0 4.693 0 3.413-5.12l-82.347-331.093c0-3.413 0-4.693-5.973-4.693z" />
<glyph unicode="&#x65;" glyph-name="after-effect" d="M62.293 885.333h899.413v-874.667h-899.413zM21.333-30.293h981.333v956.587h-981.333zM715.52 465.067c4.538-0.419 9.814-0.659 15.147-0.659s10.608 0.239 15.819 0.707l-0.672-0.049c0 2.987 0 5.12 0 6.827 0.207 1.824 0.324 3.939 0.324 6.082 0 30.339-23.631 55.159-53.491 57.057l-0.166 0.008c-39.253 0-55.893-34.133-59.733-70.827zM632.747 409.173c-0.435-3.179-0.683-6.852-0.683-10.583 0-45.479 36.868-82.347 82.347-82.347 2.644 0 5.259 0.125 7.839 0.368l-0.33-0.025c1.067-0.025 2.325-0.040 3.585-0.040 22.75 0 44.398 4.723 64.015 13.242l-1.040-0.402c2.987 0 4.693 0 4.693-2.987v-49.067c0.017-0.218 0.027-0.471 0.027-0.727 0-3.174-1.507-5.996-3.844-7.789l-0.023-0.017c-22.248-9.787-48.184-15.484-75.452-15.484-2.425 0-4.839 0.045-7.242 0.134l0.347-0.010c-107.947 0-148.48 79.787-148.48 170.667 0 96.427 49.92 175.36 137.813 175.36s120.32-74.667 120.32-135.68c0.048-1.639 0.076-3.567 0.076-5.502 0-13.144-1.27-25.991-3.694-38.425l0.205 1.26c-0.37-2.665-2.455-4.75-5.089-5.116l-0.031-0.004c-17.671-1.951-38.16-3.064-58.91-3.064-3.29 0-6.574 0.028-9.85 0.084l0.494-0.007h-107.093zM413.44 451.84c-11.52 45.227-39.253 144.213-49.493 192v0c-8.533-47.787-31.147-128-47.787-192zM298.667 384.427l-32.427-122.027c-0.19-2.672-2.404-4.767-5.108-4.767-0.306 0-0.605 0.027-0.896 0.078l0.031-0.005h-60.16c-4.267 0-5.12 0-4.267 6.4l116.053 405.76c2.718 9.693 4.28 20.823 4.28 32.318 0 0.638-0.005 1.275-0.014 1.911l0.001-0.096c0 2.987 0 4.267 3.413 4.267h85.333c2.987 0 3.84 0 4.693-4.267l130.133-440.32c0-3.413 0-5.547-3.413-5.547h-66.987c-0.171-0.019-0.369-0.029-0.57-0.029-2.62 0-4.815 1.816-5.396 4.258l-0.008 0.038-33.707 122.453z" />
<glyph unicode="&#x66;" glyph-name="facebook-ads" d="M948.48 938.667h-872.96c-29.926 0-54.187-24.26-54.187-54.187v0-872.96c0-29.926 24.26-54.187 54.187-54.187v0h469.333v380.16h-128v148.053h128v109.227c0 128 77.653 195.84 190.72 195.84 0.477 0.001 1.042 0.001 1.608 0.001 39.712 0 78.917-2.17 117.504-6.398l-4.765 0.424v-132.693h-78.080c-61.44 0-73.387-29.013-73.387-72.107v-94.293h146.773l-19.2-148.053h-128v-380.16h250.027c29.926 0 54.187 24.26 54.187 54.187v0 872.96c0 0 0 0.001 0 0.002 0 29.776-24.018 53.943-53.737 54.185h-0.023z" />
<glyph unicode="&#x67;" glyph-name="g-suite" d="M981.333 537.6h-459.52v-182.187h270.507c-10.971-66.295-47.764-122.399-99.494-158.634l-0.773-0.513c-45.378-30.82-101.368-49.207-161.653-49.207-3.17 0-6.327 0.051-9.473 0.152l0.459-0.012c-129.769 0.65-239.657 85.039-278.441 201.865l-0.599 2.082c-10.275 28.603-16.215 61.605-16.215 95.995 0 0.302 0 0.604 0.001 0.905v-0.047c0.191 34.689 5.953 67.969 16.437 99.077l-0.65-2.223c41.174 117.59 150.683 200.636 279.751 201.812l0.142 0.001c1.297 0.022 2.828 0.035 4.362 0.035 71.76 0 137.034-27.767 185.665-73.142l-0.16 0.148 138.24 135.253c-84.224 79.297-198.006 128.026-323.169 128.026-1.736 0-3.47-0.009-5.201-0.028l0.264 0.002c-270.988 0-490.667-219.679-490.667-490.667s219.679-490.667 490.667-490.667v0c3.745-0.107 8.151-0.168 12.572-0.168 120.256 0 229.948 45.228 312.995 119.602l-0.447-0.393c90.194 87.176 146.193 209.239 146.193 344.381 0 5.68-0.099 11.337-0.295 16.97l0.023-0.818c0.005 0.758 0.007 1.655 0.007 2.553 0 35.417-4.202 69.853-12.134 102.835l0.607-2.988z" />
<glyph unicode="&#x68;" glyph-name="hootsuite" d="M624.64 768.853c16.356-7.445 27.522-23.646 27.522-42.455 0-25.685-20.822-46.507-46.507-46.507-18.809 0-35.010 11.166-42.336 27.231l-0.119 0.291c-2.707-8.062-4.27-17.346-4.27-26.994 0-0.26 0.001-0.519 0.003-0.779v0.040c0.215-51.443 41.967-93.062 93.439-93.062 48.468 0 88.316 36.902 92.983 84.142l0.031 0.387c0.204 1.282 0.32 2.761 0.32 4.267s-0.116 2.984-0.341 4.427l0.021-0.161c0.020 0.682 0.032 1.483 0.032 2.288 0 8.936-1.416 17.542-4.036 25.605l0.165-0.586c-11.606 38.548-46.786 66.144-88.412 66.144-9.4 0-18.471-1.407-27.014-4.023l0.653 0.172zM418.987 680.107c-25.554 0.475-46.088 21.302-46.088 46.926 0 0.303 0.003 0.605 0.009 0.906l-0.001-0.045c0.179 18.87 11.366 35.083 27.441 42.545l0.292 0.122c-8.271 2.438-17.773 3.84-27.602 3.84-0.046 0-0.092 0-0.138 0h0.007c-51.605 0-93.44-41.835-93.44-93.44s41.835-93.44 93.44-93.44v0c0.382-0.006 0.832-0.009 1.284-0.009 50.602 0 91.678 40.781 92.156 91.27v0.045c0 0.037 0 0.080 0 0.123 0 9.684-1.403 19.041-4.016 27.878l0.176-0.694c-7.974-15.57-23.909-26.043-42.291-26.043-0.432 0-0.863 0.006-1.292 0.017l0.063-0.001zM675.413 894.72c-46.866 27.569-103.238 43.853-163.413 43.853s-116.547-16.284-164.949-44.686l1.536 0.833c-46.664 26.837-102.606 42.667-162.246 42.667-0.11 0-0.221 0-0.331 0h0.017v-326.4c0-0.254-0.001-0.554-0.001-0.854 0-360.232 291.783-652.314 651.901-652.799h0.046v980.48c-59.794-0.082-115.838-16.063-164.154-43.941l1.594 0.848zM651.947 539.307c-27.85 0.12-53.785 8.21-75.674 22.104l0.581-0.344-64.853-64.853-65.28 65.707c-20.878-13.556-46.389-21.655-73.786-21.76h-0.028c-0.229-0.001-0.5-0.002-0.771-0.002-77.526 0-140.373 62.847-140.373 140.373s62.847 140.373 140.373 140.373c73.32 0 133.51-56.213 139.826-127.892l0.038-0.533c6.978 71.387 66.687 126.72 139.32 126.72 77.29 0 139.947-62.656 139.947-139.947s-62.656-139.947-139.947-139.947c-0.080 0-0.16 0-0.239 0h0.012z" />
<glyph unicode="&#x69;" glyph-name="indesign" d="M62.293 885.333h899.413v-874.667h-899.413zM21.333-30.293h981.333v956.587h-981.333zM642.133 529.067c-6.635 2.452-14.299 3.871-22.294 3.871-0.712 0-1.422-0.011-2.129-0.034l0.103 0.003c-52.48 0-89.6-42.667-89.6-107.947 0-76.8 37.547-107.947 85.333-107.947 0.758-0.029 1.649-0.046 2.543-0.046 9.541 0 18.639 1.898 26.937 5.337l-0.467-0.171zM620.373 595.627c3.252 0.208 7.052 0.326 10.88 0.326s7.628-0.118 11.397-0.352l-0.517 0.026v108.373c-0.015 0.128-0.024 0.276-0.024 0.427 0 2.121 1.719 3.84 3.84 3.84 0.008 0 0.017 0 0.025 0h66.559c2.987 0 3.84 0 3.84-3.413v-384c-0.048-1.979-0.075-4.311-0.075-6.649 0-12.695 0.802-25.203 2.359-37.476l-0.151 1.458c0-2.987 0-3.413-3.84-4.693-31.067-15.345-67.637-24.321-106.304-24.321-0.277 0-0.555 0-0.832 0.001h0.043c-90.453 0-154.88 55.893-154.88 170.667-0.226 3.214-0.355 6.964-0.355 10.745 0 90.015 72.972 162.987 162.987 162.987 1.775 0 3.544-0.028 5.305-0.085l-0.257 0.007zM380.16 263.253c0-4.267 0-5.547-5.12-5.547h-63.147c-3.84 0-5.12 2.133-5.12 5.547v440.747c0 4.267 0 5.547 5.12 5.547h63.573c3.413 0 4.693 0 4.693-5.12z" />
<glyph unicode="&#x6c;" glyph-name="illustrator" d="M62.293 885.333h899.413v-874.667h-899.413zM21.333-30.293h981.333v956.587h-981.333zM663.893 585.387c0 3.413 0 5.12 5.12 5.12h64c3.413 0 5.12 0 5.12-5.12v-322.56c0-3.413 0-5.12-5.12-5.12h-63.147c-4.267 0-5.547 2.133-5.547 5.547v322.133zM659.627 678.4c4.474 19.145 21.397 33.186 41.6 33.186s37.126-14.041 41.543-32.897l0.057-0.289c0.135-1.215 0.212-2.625 0.212-4.052 0-21.443-17.383-38.827-38.827-38.827-1.427 0-2.837 0.077-4.224 0.227l0.172-0.015c-0.711-0.047-1.542-0.074-2.379-0.074-21.208 0-38.4 17.192-38.4 38.4 0 1.529 0.089 3.038 0.263 4.52l-0.017-0.18zM475.733 450.987c-11.52 45.227-38.4 144.213-48.64 192v0c-8.533-47.787-30.293-128-47.36-192zM361.813 384.427l-32-122.453c0-3.413-2.133-4.267-6.4-4.267h-60.16c-3.84 0-4.693 0-3.84 6.4l116.053 406.187c2.471 9.073 3.89 19.49 3.89 30.239 0 1.219-0.018 2.434-0.055 3.645l0.004-0.177c0 2.987 0 3.84 3.413 3.84h85.333c2.987 0 4.267 0 5.12-3.84l130.133-441.173c0-3.413 0-5.547-3.413-5.547h-67.413c-3.413 0-5.547 0-5.973 3.84l-33.707 122.88z" />
<glyph unicode="&#x6f;" glyph-name="office" d="M85.333 133.973v622.507l554.667 203.52 298.667-95.573v-838.4l-298.667-90.027-554.667 197.973 554.667-66.133v725.333l-359.253-85.333v-490.24z" />
<glyph unicode="&#x70;" glyph-name="photoshop" d="M62.293 885.333h899.413v-874.667h-899.413zM21.333-30.293h981.333v956.587h-981.333zM682.667 533.333c-32.427 0-42.667-16.213-42.667-29.867s7.253-24.747 50.773-47.36c64-31.147 85.333-61.013 85.333-104.533 0-65.707-49.92-100.693-117.333-100.693-2.448-0.121-5.316-0.19-8.2-0.19-28.060 0-54.596 6.527-78.172 18.146l1.038-0.463c-2.987 0-3.413 3.413-3.413 6.827v59.733c0 4.267 2.133 5.547 5.12 3.413 23.093-14.984 51.333-23.894 81.653-23.894 0.094 0 0.188 0 0.281 0h-0.015c32.427 0 46.080 13.227 46.080 31.573s-9.387 28.16-50.773 49.067c-58.027 28.16-82.347 56.32-82.347 103.253 1.736 54.251 46.132 97.57 100.645 97.57 4.227 0 8.394-0.261 12.485-0.766l-0.49 0.049c2.645 0.138 5.743 0.217 8.86 0.217 23.038 0 45.070-4.306 65.335-12.158l-1.235 0.421c2.584-1.602 4.279-4.423 4.279-7.64 0-0.164-0.004-0.327-0.013-0.489l0.001 0.023v-55.893c0-3.413-2.133-5.547-6.4-4.267-19.442 11.292-42.784 17.956-67.682 17.956-1.106 0-2.208-0.013-3.308-0.039l0.163 0.003zM331.093 485.12c9.387 0 17.067 0 33.28 0 47.787 0 93.013 17.067 93.013 81.92 0 52.053-32.427 78.080-85.333 78.080-16.213 0-31.573 0-39.253 0zM258.56 704c0 2.987 5.547 5.12 8.96 5.12 26.027 0 64.853 0 105.387 0 113.493 0 157.44-61.867 157.44-141.227 0-104.107-75.093-148.48-167.68-148.48h-32v-157.013c0-3.413 0-5.12-4.693-5.12h-62.72c-2.987 0-4.693 0-4.693 5.12v441.6z" />
<glyph unicode="&#x73;" glyph-name="sketchup" d="M654.507 938.667h3.413c89.173-69.547 308.053-245.76 308.053-245.76s-47.36-396.8-65.707-556.8c-213.333-59.307-421.12-121.173-634.027-178.773-18.773 64-138.24 384.853-138.24 384.853s-50.773 387.84-69.973 517.973c197.973 27.307 399.787 50.347 596.48 78.507zM640 879.787q-256-35.413-517.973-67.413c10.667-28.587 23.467-55.040 34.56-85.333 106.24 19.627 218.88 32.853 327.68 49.493 14.142 4.063 30.386 6.4 47.175 6.4 0.065 0 0.13 0 0.195 0h-0.010c9.387 0 26.88-22.613 36.267-32.853 33.48-37.834 67.606-72.5 103.478-105.288l1.056-0.952c71.253 14.080 145.067 25.6 216.32 39.253-75.947 63.573-166.4 131.84-248.747 196.693zM538.88 632.32c-115.2-17.067-236.373-42.667-355.84-60.587 10.24-32.427 22.613-62.72 34.56-93.44 65.707 10.24 128 24.32 191.573 36.267 18.773-27.307 32-60.16 52.48-85.333 67.84 15.36 136.96 29.013 204.8 42.667-37.973 52.907-84.48 109.653-128 160.427zM446.72 299.52c-4.693 9.387-17.92 49.067-27.733 46.080-49.92-14.080-116.48-25.6-173.653-39.253 6.827-31.147 22.613-67.413 32.853-99.84 66.56 13.227 128 31.573 193.28 45.653-7.491 18.169-15.929 33.747-25.772 48.298l0.598-0.938z" />
<glyph unicode="&#x74;" glyph-name="sublime-text" d="M964.693 938.667h-905.387c-20.972 0-37.973-17.001-37.973-37.973v0-905.387c0-20.972 17.001-37.973 37.973-37.973v0h905.387c20.972 0 37.973 17.001 37.973 37.973v0 905.387c0 20.972-17.001 37.973-37.973 37.973v0zM749.227 234.667l-490.24-147.2c-24.747-10.24-26.88 7.68-26.88 7.68s2.987 98.987 0 147.627 23.893 49.92 23.893 49.92l192 48.64 304.213-97.707c15.787-5.12-2.987-8.96-2.987-8.96zM791.893 444.16v-170.667c0-20.907-14.933-14.080-14.933-14.080l-510.293 165.547c-36.267 7.68-34.56 26.453-34.56 26.453v151.467c-5.973 34.56 14.080 39.253 14.080 39.253l512 162.987s36.267 19.2 27.733-16.213v-157.013s6.4-23.040-25.173-28.587l-206.080-65.28 208.213-65.28c32.853-11.52 28.16-29.013 28.16-29.013z" />
<glyph unicode="&#x77;" glyph-name="wordpress" d="M512-42.667c-1.146-0.010-2.5-0.015-3.855-0.015-268.867 0-486.827 217.96-486.827 486.827 0 1.356 0.006 2.71 0.017 4.063l-0.001-0.208c-0.035 2.174-0.055 4.739-0.055 7.309 0 266.982 216.432 483.413 483.413 483.413 2.57 0 5.134-0.020 7.694-0.060l-0.386 0.005c1.787 0.024 3.897 0.037 6.011 0.037 267.689 0 484.693-217.005 484.693-484.693 0-2.114-0.014-4.224-0.041-6.331l0.003 0.32c-0.243-270.89-219.777-490.424-490.644-490.667h-0.023zM657.067 32.853l-139.093 372.48-130.56-384c36.74-11.575 78.99-18.244 122.798-18.244 52.735 0 103.213 9.664 149.759 27.317l-2.904-0.967zM317.867 53.333l-208.64 570.453c-23.568-51.655-37.757-111.93-38.822-175.401l-0.005-0.386c1.22-172.324 100.575-321.156 244.91-393.506l2.557-1.161zM951.467 448c-1.121 75.553-19.921 146.464-52.432 209.116l1.232-2.609c0.745-9.601 1.169-20.792 1.169-32.082 0-50.674-8.552-99.351-24.291-144.667l0.935 3.095-143.36-410.88c131.406 76.981 218.376 217.291 218.88 377.954v0.073zM497.92 466.347l-71.253 190.293-49.493 4.693c-5.811 3.479-9.64 9.74-9.64 16.896 0 9.724 7.071 17.796 16.352 19.355l0.115 0.016c35.204-3.057 76.172-4.8 117.547-4.8s82.343 1.743 122.834 5.159l-5.287-0.359c9.083-1.42 15.951-9.188 15.951-18.56s-6.868-17.14-15.845-18.546l-0.106-0.014-49.067-3.84 159.573-469.333 75.52 256c4.267 112.64-26.453 125.013-67.413 206.507-9.607 13.111-15.373 29.562-15.373 47.36 0 44.536 36.104 80.64 80.64 80.64 0.004 0 0.009 0 0.013 0h-0.001c-77.411 69.986-180.534 112.813-293.659 112.813-152.755 0-287.271-78.088-365.808-196.522l-1.012-1.624 151.467 4.267c6.533-3.621 10.882-10.476 10.882-18.347s-4.349-14.725-10.775-18.292l-0.107-0.054-53.333-4.267 160.853-479.573 96.427 290.133z" />
<glyph unicode="&#x78;" glyph-name="os-x" d="M554.667 853.333c35.657 48.298 90.648 80.555 153.322 85.291l0.705 0.043c0.594-5.902 0.933-12.755 0.933-19.688 0-52.724-19.597-100.872-51.905-137.555l0.198 0.23c-30.496-42.042-79.465-69.070-134.747-69.070-3.931 0-7.83 0.137-11.693 0.406l0.521-0.029c-0.801 6.429-1.257 13.87-1.257 21.418 0 45.528 16.622 87.173 44.128 119.199l-0.204-0.244zM520.107 657.067c33.28 0 94.72 45.653 174.933 45.653 2.777 0.126 6.034 0.198 9.308 0.198 75.998 0 142.949-38.732 182.191-97.533l0.501-0.798c-63.742-37.683-105.821-106.058-105.821-184.261 0-0.621 0.003-1.241 0.008-1.86l-0.001 0.095c0.444-89.082 54.139-165.514 130.863-199.132l1.404-0.548s-92.587-260.267-217.6-260.267c-57.173 0-101.973 38.827-162.133 38.827s-122.88-40.107-162.56-40.107c-113.92 0-256 246.613-256 445.013s122.027 298.667 236.373 298.667c74.24 0 132.267-42.667 170.667-42.667z" />
<glyph unicode="&#xe908;" glyph-name="html5" d="M81.493 938.667l78.933-883.2 351.573-98.133 354.133 98.133 80.64 883.2zM782.507 729.173l-4.693-55.040-2.56-24.32h-414.293l9.813-110.933h394.667l-2.56-29.013-25.173-285.44v-17.92l-221.867-61.867-221.867 61.867-15.36 170.667h105.387l7.68-85.333 120.747-32.853 120.747 32.853 12.8 140.373h-374.187l-26.453 298.667-2.987 29.013h542.72z" />
<glyph unicode="&#xe909;" glyph-name="hubspot" d="M761.6 615.68v116.907c30.724 14.623 51.59 45.404 51.627 81.062v2.565c0 0.007 0 0.016 0 0.025 0 48.97-39.099 88.808-87.783 89.999l-0.111 0.002h-4.267c-49.537-0.242-89.6-40.455-89.6-90.026 0 0 0-0.001 0-0.001v0-2.56c0.173-35.513 20.784-66.172 50.667-80.831l0.533-0.236v-116.907c-46.244-7.315-87.121-26.246-120.776-53.694l0.456 0.361-318.293 249.6c2.11 7.534 3.352 16.196 3.413 25.138v0.036c-0.242 55.428-45.231 100.267-100.692 100.267-55.611 0-100.693-45.082-100.693-100.693s45.081-100.693 100.692-100.693v0c0.044 0 0.095 0 0.147 0 18.222 0 35.259 5.077 49.772 13.894l-0.426-0.24 315.733-245.76c-26.598-39.726-42.447-88.601-42.447-141.178 0-54.977 17.33-105.907 46.825-147.624l-0.538 0.802-97.28-96c-7.096 2.435-15.271 3.84-23.775 3.84-0.042 0-0.083 0-0.125 0h0.006c-0.755 0.024-1.643 0.038-2.534 0.038-47.128 0-85.333-38.205-85.333-85.333s38.205-85.333 85.333-85.333c47.128 0 85.333 38.205 85.333 85.333 0 0.737-0.009 1.472-0.028 2.204l0.002-0.108c-0.036 8.404-1.438 16.468-3.997 23.999l0.157-0.532 94.293 95.147c42.602-32.832 96.728-52.621 155.477-52.621 50.032 0 96.711 14.352 136.146 39.165l-1.062-0.624c72.155 46.093 119.309 125.766 119.309 216.452 0 127.321-92.947 232.933-214.689 252.684l-1.473 0.197zM722.347 230.4c-71.168 1.814-128.168 59.937-128.168 131.373 0 69.033 53.229 125.633 120.882 130.998l0.459 0.029h6.827c69.284-4.074 123.928-61.256 123.928-131.2s-54.644-127.126-123.571-131.183l-0.358-0.017z" />
<glyph unicode="&#xe90c;" glyph-name="lightroom" d="M961.707 885.333v-874.667h-899.413v874.667zM21.333-30.293h981.333v956.587h-981.333zM597.333 523.52c0 5.12 0 17.067 0 39.68-0.512 0.784-0.816 1.743-0.816 2.773s0.304 1.99 0.828 2.793l-0.012-0.020c44.675 17.48 96.386 27.779 150.455 28.159l0.159 0.001c3.413 0 5.12 0 5.12-4.267v-59.307c0-2.987 0-3.84-5.12-3.84-4.207 0.258-9.124 0.405-14.075 0.405-22.768 0-44.811-3.107-65.727-8.92l1.722 0.408v-258.133c0-3.413 0-5.12-5.12-5.12h-64c-3.413 0-5.12 0-5.12 5.12v260.267zM293.12 258.56c-4.693 0-5.973 2.133-5.973 6.4v439.040c0 3.413 0 5.12 4.693 5.12h64.853c2.987 0 3.84 0 3.84-4.693v-378.88h170.667c3.413 0 4.693 0 3.84-4.693l-10.24-58.027c-0.432-2.912-2.914-5.12-5.912-5.12-0.022 0-0.043 0-0.065 0h-225.704z" />
<glyph unicode="&#xe910;" glyph-name="premiere" d="M62.293 885.333h899.413v-874.667h-899.413zM21.333-30.293h981.333v956.587h-981.333zM610.133 522.24c-0.046 14.035-0.82 27.83-2.285 41.418l0.152-1.738c0 3.413 0 4.267 3.413 5.547 44.407 17.597 95.843 27.91 149.657 28.16h0.103c2.987 0 4.693 0 4.693-4.267v-58.027c0-2.987 0-3.84-4.267-3.84-4.236 0.266-9.186 0.418-14.172 0.418-22.587 0-44.448-3.112-65.176-8.931l1.694 0.406v-256c0-3.413 0-5.12-4.693-5.12h-64.427c-2.987 0-4.693 0-4.693 5.12v256.853zM348.587 485.12c9.387 0 16.64 0 32.853 0 47.787 0 93.013 17.067 93.013 81.92 0 52.053-32 78.080-85.333 78.080-16.64 0-32 0-39.253 0v-157.867zM276.053 704c0 2.987 0 5.12 4.267 5.12 26.027 0 64.427 0 104.96 0 113.067 0 162.56-61.867 162.56-141.653 0-104.107-75.093-148.48-167.68-148.48h-31.573v-157.013c0-3.413 0-5.12-5.12-5.12h-62.72c-3.413 0-5.12 0-5.12 5.12v442.027z" />
<glyph unicode="&#xe914;" glyph-name="xd" d="M21.333 926.293v-956.587h981.333v956.587zM64 883.627h897.707v-874.667h-899.413zM737.707 495.787c-6.151 2.737-13.327 4.331-20.876 4.331-0.911 0-1.817-0.023-2.717-0.069l0.126 0.005c-51.627 0-85.333-39.68-85.333-105.813 0-75.093 34.987-105.387 80.64-105.387 0.648-0.020 1.41-0.032 2.174-0.032 9.337 0 18.268 1.733 26.491 4.896l-0.505-0.171v202.24zM554.667 391.253c-0.289 3.59-0.454 7.773-0.454 11.994 0 87.659 71.061 158.72 158.72 158.72 1.36 0 2.716-0.017 4.067-0.051l-0.2 0.004c3.126 0.208 6.776 0.326 10.453 0.326s7.328-0.118 10.947-0.352l-0.493 0.025v104.533c0 0.007 0 0.015 0 0.024 0 2.121 1.719 3.84 3.84 3.84 0.15 0 0.299-0.009 0.445-0.025l-0.018 0.002h65.707c3.413 0 4.267 0 4.267-2.987v-373.76c-0.461-6.001-0.724-12.997-0.724-20.053s0.263-14.052 0.779-20.977l-0.055 0.924c0-2.987 0-3.413-2.56-4.693-30.611-14.76-66.555-23.408-104.513-23.467h-0.020c-88.747 0-152.32 54.613-152.32 165.973zM415.147 457.387l114.773-222.72c0-3.413 0-6.827-2.56-6.827h-71.253c-0.248-0.027-0.536-0.042-0.828-0.042-3.577 0-6.613 2.317-7.689 5.532l-0.017 0.057c-26.027 53.76-52.907 110.080-80.213 168.107v0c-26.027-54.187-52.053-113.92-78.507-166.827 0-3.413-3.84-4.693-7.253-4.693h-68.267c-4.267 0-4.693 3.413-2.56 5.973l112.213 213.333-109.653 215.467c-0.72 0.629-1.173 1.549-1.173 2.575 0 1.885 1.528 3.413 3.413 3.413 0.112 0 0.224-0.005 0.333-0.016l-0.014 0.001h72.107c4.267 0 6.4 0 7.68-4.267 25.6-54.613 51.627-107.947 76.373-162.987v0c23.467 54.187 49.92 108.373 74.667 162.133 0 3.413 3.413 5.12 7.253 5.12h66.133c2.987 0 4.267 0 0-5.973l-104.96-207.36z" />
<glyph unicode="&#xeabf;" glyph-name="finder" d="M569.226 181.744c-0.002 0.044-0.002 0.088-0.004 0.132 0.002-0.044 0.002-0.088 0.004-0.132zM570.596 145.462c-0.012 0.234-0.022 0.466-0.032 0.702 0.010-0.234 0.020-0.466 0.032-0.702zM569.814 163.688c-0.006 0.178-0.012 0.356-0.020 0.536 0.010-0.182 0.016-0.358 0.020-0.536zM960 960h-896c-35.2 0-64-28.8-64-64v-896c0-35.2 28.8-64 64-64h493.832c0.044 0 0.088-0.006 0.132-0.006 0.042 0 0.084 0.006 0.126 0.006h401.91c35.2 0 64 28.8 64 64v896c0 35.2-28.8 64-64 64zM192 736c0 17.672 14.328 32 32 32s32-14.328 32-32v-64c0-17.672-14.328-32-32-32s-32 14.328-32 32v64zM960 0h-375.058c-6.7 42.082-10.906 85.476-13.388 127.604 0.006-0.116 0.010-0.228 0.018-0.344-19.696-2.146-39.578-3.26-59.572-3.26-133.65 0-262.382 48.656-362.484 137.006-14.906 13.156-16.326 35.906-3.168 50.812 13.158 14.904 35.906 16.326 50.814 3.168 86.936-76.728 198.748-118.986 314.838-118.986 19.086 0 38.052 1.166 56.816 3.416-2.192 118.194 6.876 211.914 7.026 213.404 0.898 8.996-2.050 17.952-8.118 24.654-6.066 6.702-14.682 10.526-23.724 10.526h-95.174c1.384 34.614 5.082 93.814 14.958 160.188 18.864 126.76 51.994 225.77 96.152 287.812h400.064v-896zM800 640c-17.674 0-32 14.328-32 32v64c0 17.672 14.326 32 32 32s32-14.328 32-32v-64c0-17.672-14.326-32-32-32zM540.496 124.768c-3.646-0.192-7.298-0.336-10.956-0.454 3.658 0.116 7.31 0.264 10.956 0.454zM512 124c4.692 0 9.374 0.074 14.050 0.196-4.676-0.122-9.358-0.196-14.050-0.196zM539.074 196.798c0.784 0.044 1.568 0.084 2.352 0.132-0.782-0.048-1.568-0.088-2.352-0.132zM525.084 196.2c1.074 0.030 2.146 0.072 3.218 0.11-1.072-0.038-2.144-0.082-3.218-0.11zM877.65 311.818c-13.156 14.91-35.908 16.322-50.812 3.168-72.642-64.114-162.658-104.136-258.022-115.57 0.43-23.278 1.294-47.496 2.754-72.156 111.954 12.21 217.786 58.614 302.912 133.746 14.908 13.156 16.326 35.906 3.168 50.812zM571.498 127.252c-4.606-0.5-9.222-0.936-13.848-1.322 4.626 0.384 9.244 0.822 13.848 1.322zM555.488 125.758c-3.906-0.312-7.822-0.576-11.742-0.806 3.92 0.226 7.834 0.496 11.742 0.806z" />
</font>
</defs>
</svg>
